<svg xmlns="http://www.w3.org/2000/svg" xmlns:xlink="http://www.w3.org/1999/xlink" version="1.1" data-diagram-type="DESCRIPTION" style="width:1497px;height:1007px;background:#1B1B1B;" width="1497px" height="1007px" viewBox="0 0 1497 1007" zoomAndPan="magnify" preserveAspectRatio="none" contentStyleType="text/css"><?plantuml 1.2026.7beta8?><defs/><g font-family="sans-serif" lengthAdjust="spacing"><rect x="0" y="0" width="1497" height="1007" fill="#1B1B1B" style="stroke:none;"/><g class="title" data-source-line="1"><text x="534.211" y="22.995" fill="#FFF" font-size="14" textLength="422.468" font-weight="700">Архитектура сервиса профилей онлайн-кинотеатра</text></g><!--cluster Пользователи и профили--><g class="cluster" data-qualified-name="............ . ......." id="ent0004" data-source-line="19"><path d="M466.7,272.567 L674.508,272.567 A3.75,3.75 0 0 1 677.008,275.067 L684.008,294.864 L1480.39,294.864 A2.5,2.5 0 0 1 1482.89,297.364 L1482.89,489.067 A2.5,2.5 0 0 1 1480.39,491.567 L466.7,491.567 A2.5,2.5 0 0 1 464.2,489.067 L464.2,275.067 A2.5,2.5 0 0 1 466.7,272.567" style="stroke:#FFF;stroke-width:1.5;" fill="none"/><line x1="464.2" y1="294.864" x2="684.008" y2="294.864" style="stroke:#FFF;stroke-width:1.5;"/><text x="468.2" y="287.562" fill="#FFF" font-size="14" textLength="206.808" font-weight="700">Пользователи и профили</text></g><!--cluster Контент--><g class="cluster" data-qualified-name="......." id="ent0010" data-source-line="28"><path d="M458.74,773.567 L525.871,773.567 A3.75,3.75 0 0 1 528.371,776.067 L535.371,795.864 L1213.32,795.864 A2.5,2.5 0 0 1 1215.82,798.364 L1215.82,990.067 A2.5,2.5 0 0 1 1213.32,992.567 L458.74,992.567 A2.5,2.5 0 0 1 456.24,990.067 L456.24,776.067 A2.5,2.5 0 0 1 458.74,773.567" style="stroke:#FFF;stroke-width:1.5;" fill="none"/><line x1="456.24" y1="795.864" x2="535.371" y2="795.864" style="stroke:#FFF;stroke-width:1.5;"/><text x="460.24" y="788.562" fill="#FFF" font-size="14" textLength="66.131" font-weight="700">Контент</text></g><!--cluster Пользовательский контент--><g class="cluster" data-qualified-name="................ ......." id="ent0015" data-source-line="36"><path d="M452.4,515.567 L673.1,515.567 A3.75,3.75 0 0 1 675.6,518.067 L682.6,537.864 L880.18,537.864 A2.5,2.5 0 0 1 882.68,540.364 L882.68,610.067 A2.5,2.5 0 0 1 880.18,612.567 L452.4,612.567 A2.5,2.5 0 0 1 449.9,610.067 L449.9,518.067 A2.5,2.5 0 0 1 452.4,515.567" style="stroke:#FFF;stroke-width:1.5;" fill="none"/><line x1="449.9" y1="537.864" x2="682.6" y2="537.864" style="stroke:#FFF;stroke-width:1.5;"/><text x="453.9" y="530.562" fill="#FFF" font-size="14" textLength="219.7" font-weight="700">Пользовательский контент</text></g><!--entity Auth--><g class="entity" data-qualified-name="............ . ........Auth" id="ent0005" data-source-line="20"><rect x="480.2" y="435.417" width="109.004" height="36.297" fill="#313139" style="stroke:#E7E7E7;stroke-width:0.5;" rx="2.5" ry="2.5"/><text x="490.2" y="458.412" fill="#FFF" font-size="14" textLength="89.004">Auth Service</text></g><!--entity Profile--><g class="entity" data-qualified-name="............ . ........Profile" id="ent0006" data-source-line="21"><rect x="762.87" y="307.417" width="120.276" height="36.297" fill="#313139" style="stroke:#E7E7E7;stroke-width:0.5;" rx="2.5" ry="2.5"/><text x="772.87" y="330.412" fill="#FFF" font-size="14" textLength="100.276">Profile Service</text></g><!--entity DjangoAdmin--><g class="entity" data-qualified-name="............ . ........DjangoAdmin" id="ent0007" data-source-line="22"><rect x="1084.12" y="396.417" width="118.889" height="36.297" fill="#313139" style="stroke:#E7E7E7;stroke-width:0.5;" rx="2.5" ry="2.5"/><text x="1094.12" y="419.412" fill="#FFF" font-size="14" textLength="98.889">Django Admin</text></g><!--entity AuthDB--><g class="entity" data-qualified-name="............ . ........AuthDB" id="ent0008" data-source-line="24"><path d="M772.63,423.767 C772.63,413.767 823.006,413.767 823.006,413.767 C823.006,413.767 873.383,413.767 873.383,423.767 L873.383,465.361 C873.383,475.361 823.006,475.361 823.006,475.361 C823.006,475.361 772.63,475.361 772.63,465.361 L772.63,423.767" style="stroke:#E7E7E7;stroke-width:0.5;" fill="#313139"/><path d="M772.63,423.767 C772.63,433.767 823.006,433.767 823.006,433.767 C823.006,433.767 873.383,433.767 873.383,423.767" style="stroke:#E7E7E7;stroke-width:0.5;" fill="none"/><text x="782.63" y="450.762" fill="#FFF" font-size="14" textLength="80.753">PostgreSQL</text><text x="806.6" y="467.059" fill="#FFF" font-size="14" textLength="32.813">Auth</text></g><!--entity ProfileDB--><g class="entity" data-qualified-name="............ . ........ProfileDB" id="ent0009" data-source-line="25"><path d="M1366.14,355.767 C1366.14,345.767 1416.516,345.767 1416.516,345.767 C1416.516,345.767 1466.893,345.767 1466.893,355.767 L1466.893,397.361 C1466.893,407.361 1416.516,407.361 1416.516,407.361 C1416.516,407.361 1366.14,407.361 1366.14,397.361 L1366.14,355.767" style="stroke:#E7E7E7;stroke-width:0.5;" fill="#313139"/><path d="M1366.14,355.767 C1366.14,365.767 1416.516,365.767 1416.516,365.767 C1416.516,365.767 1466.893,365.767 1466.893,355.767" style="stroke:#E7E7E7;stroke-width:0.5;" fill="none"/><text x="1376.14" y="382.762" fill="#FFF" font-size="14" textLength="80.753">PostgreSQL</text><text x="1390.827" y="399.059" fill="#FFF" font-size="14" textLength="51.379">Profiles</text></g><!--entity Movies--><g class="entity" data-qualified-name="........Movies" id="ent0011" data-source-line="29"><rect x="472.24" y="940.417" width="124.918" height="36.297" fill="#313139" style="stroke:#E7E7E7;stroke-width:0.5;" rx="2.5" ry="2.5"/><text x="482.24" y="963.412" fill="#FFF" font-size="14" textLength="104.918">Movies Service</text></g><!--entity ETL--><g class="entity" data-qualified-name="........ETL" id="ent0012" data-source-line="30"><rect x="772.31" y="851.417" width="101.389" height="36.297" fill="#313139" style="stroke:#E7E7E7;stroke-width:0.5;" rx="2.5" ry="2.5"/><text x="782.31" y="874.412" fill="#FFF" font-size="14" textLength="81.389">ETL Service</text></g><!--entity MoviesDB--><g class="entity" data-qualified-name="........MoviesDB" id="ent0013" data-source-line="32"><path d="M484.32,818.767 C484.32,808.767 534.696,808.767 534.696,808.767 C534.696,808.767 585.073,808.767 585.073,818.767 L585.073,860.361 C585.073,870.361 534.696,870.361 534.696,870.361 C534.696,870.361 484.32,870.361 484.32,860.361 L484.32,818.767" style="stroke:#E7E7E7;stroke-width:0.5;" fill="#313139"/><path d="M484.32,818.767 C484.32,828.767 534.696,828.767 534.696,828.767 C534.696,828.767 585.073,828.767 585.073,818.767" style="stroke:#E7E7E7;stroke-width:0.5;" fill="none"/><text x="494.32" y="845.762" fill="#FFF" font-size="14" textLength="80.753">PostgreSQL</text><text x="510.333" y="862.059" fill="#FFF" font-size="14" textLength="48.727">Movies</text></g><!--entity Elasticsearch--><g class="entity" data-qualified-name="........Elasticsearch" id="ent0014" data-source-line="33"><path d="M1087.32,898.917 C1087.32,888.917 1143.569,888.917 1143.569,888.917 C1143.569,888.917 1199.817,888.917 1199.817,898.917 L1199.817,924.214 C1199.817,934.214 1143.569,934.214 1143.569,934.214 C1143.569,934.214 1087.32,934.214 1087.32,924.214 L1087.32,898.917" style="stroke:#E7E7E7;stroke-width:0.5;" fill="#313139"/><path d="M1087.32,898.917 C1087.32,908.917 1143.569,908.917 1143.569,908.917 C1143.569,908.917 1199.817,908.917 1199.817,898.917" style="stroke:#E7E7E7;stroke-width:0.5;" fill="none"/><text x="1097.32" y="925.912" fill="#FFF" font-size="14" textLength="92.497">Elasticsearch</text></g><!--entity UGC--><g class="entity" data-qualified-name="................ ........UGC" id="ent0016" data-source-line="37"><rect x="465.9" y="553.417" width="137.599" height="36.297" fill="#313139" style="stroke:#E7E7E7;stroke-width:0.5;" rx="2.5" ry="2.5"/><text x="475.9" y="576.412" fill="#FFF" font-size="14" textLength="117.599">UGC Content API</text></g><!--entity MongoDB--><g class="entity" data-qualified-name="................ ........MongoDB" id="ent0017" data-source-line="38"><path d="M779.33,560.917 C779.33,550.917 823.007,550.917 823.007,550.917 C823.007,550.917 866.684,550.917 866.684,560.917 L866.684,586.214 C866.684,596.214 823.007,596.214 823.007,596.214 C823.007,596.214 779.33,596.214 779.33,586.214 L779.33,560.917" style="stroke:#E7E7E7;stroke-width:0.5;" fill="#313139"/><path d="M779.33,560.917 C779.33,570.917 823.007,570.917 823.007,570.917 C823.007,570.917 866.684,570.917 866.684,560.917" style="stroke:#E7E7E7;stroke-width:0.5;" fill="none"/><text x="789.33" y="587.912" fill="#FFF" font-size="14" textLength="67.354">MongoDB</text></g><!--entity User--><g class="entity" data-qualified-name="User" id="ent0001" data-source-line="14"><ellipse cx="64.05" cy="468.917" rx="8" ry="8" fill="#313139" style="stroke:#E7E7E7;stroke-width:0.5;"/><path d="M64.05,476.917 L64.05,503.917 M51.05,484.917 L77.05,484.917 M64.05,503.917 L51.05,518.917 M64.05,503.917 L77.05,518.917" style="stroke:#E7E7E7;stroke-width:0.5;" fill="none"/><text x="12.5" y="533.412" fill="#FFF" font-size="14" textLength="103.1">Пользователь</text></g><!--entity Admin--><g class="entity" data-qualified-name="Admin" id="ent0002" data-source-line="15"><ellipse cx="64.047" cy="614.917" rx="8" ry="8" fill="#313139" style="stroke:#E7E7E7;stroke-width:0.5;"/><path d="M64.047,622.917 L64.047,649.917 M51.047,630.917 L77.047,630.917 M64.047,649.917 L51.047,664.917 M64.047,649.917 L77.047,664.917" style="stroke:#E7E7E7;stroke-width:0.5;" fill="none"/><text x="6" y="679.412" fill="#FFF" font-size="14" textLength="116.095">Администратор</text></g><!--entity Nginx--><g class="entity" data-qualified-name="Nginx" id="ent0003" data-source-line="17"><rect x="214.89" y="553.417" width="126.702" height="36.297" fill="#313139" style="stroke:#E7E7E7;stroke-width:0.5;" rx="2.5" ry="2.5"/><text x="224.89" y="576.412" fill="#FFF" font-size="14" textLength="106.702">Nginx Gateway</text></g><g class="entity" data-qualified-name="GMN32" id="ent0033" data-source-line="64"><path d="M437.98,183.437 L437.98,223.703 A0,0 0 0 0 437.98,223.703 L530.89,223.703 L534.89,435.187 L538.89,223.703 L631.427,223.703 A0,0 0 0 0 631.427,223.703 L631.427,193.437 L621.427,183.437 L437.98,183.437 A0,0 0 0 0 437.98,183.437" style="stroke:#E7E7E7;stroke-width:0.5;" fill="#714137"/><path d="M621.427,183.437 L621.427,193.437 L631.427,193.437 L621.427,183.437" style="stroke:#E7E7E7;stroke-width:0.5;" fill="#714137"/><text x="462.839" y="200.504" fill="#FFF" font-size="13" textLength="134.729">JWT подписывается</text><text x="443.98" y="215.637" fill="#FFF" font-size="13" textLength="172.447">симметричным секретом</text></g><g class="entity" data-qualified-name="GMN35" id="ent0036" data-source-line="69"><path d="M725.01,151.737 L725.01,237.401 A0,0 0 0 0 725.01,237.401 L819.89,237.401 L823.89,307.077 L827.89,237.401 L920.996,237.401 A0,0 0 0 0 920.996,237.401 L920.996,161.737 L910.996,151.737 L725.01,151.737 A0,0 0 0 0 725.01,151.737" style="stroke:#E7E7E7;stroke-width:0.5;" fill="#714137"/><path d="M910.996,151.737 L910.996,161.737 L920.996,161.737 L910.996,151.737" style="stroke:#E7E7E7;stroke-width:0.5;" fill="#714137"/><text x="733.162" y="168.804" fill="#FFF" font-size="13" textLength="170.682">Проверяет JWT локально</text><text x="749.361" y="183.937" fill="#FFF" font-size="13" textLength="138.284">и извлекает user_id.</text><text x="816.437" y="199.069" fill="#FFF" font-size="13"> </text><text x="731.01" y="214.202" fill="#FFF" font-size="13" textLength="174.986">Не вызывает Auth Service</text><text x="745.2" y="229.335" fill="#FFF" font-size="13" textLength="146.605">при каждом запросе.</text></g><g class="entity" data-qualified-name="GMN38" id="ent0039" data-source-line="77"><path d="M434.39,43.297 L434.39,113.828 L635.016,113.828 L635.016,53.297 L625.016,43.297 L434.39,43.297" style="stroke:#E7E7E7;stroke-width:0.5;" fill="#714137"/><path d="M625.016,43.297 L625.016,53.297 L635.016,53.297 L625.016,43.297" style="stroke:#E7E7E7;stroke-width:1;" fill="#714137"/><text x="440.39" y="60.364" fill="#FFF" font-size="13" textLength="179.626">Хранит user_id и movie_id.</text><text x="528.137" y="75.497" fill="#FFF" font-size="13"> </text><text x="458.509" y="90.629" fill="#FFF" font-size="13" textLength="143.387">Не проверяет фильм</text><text x="457.938" y="105.762" fill="#FFF" font-size="13" textLength="144.53">через Movies Service.</text></g><g class="entity" data-qualified-name="GMN41" id="ent0042" data-source-line="84"><path d="M1011,214.437 L1011,254.703 A0,0 0 0 0 1011,254.703 L1139.89,254.703 L1143.89,395.977 L1147.89,254.703 L1276.137,254.703 A0,0 0 0 0 1276.137,254.703 L1276.137,224.437 L1266.137,214.437 L1011,214.437 A0,0 0 0 0 1011,214.437" style="stroke:#E7E7E7;stroke-width:0.5;" fill="#714137"/><path d="M1266.137,214.437 L1266.137,224.437 L1276.137,224.437 L1266.137,214.437" style="stroke:#E7E7E7;stroke-width:0.5;" fill="#714137"/><text x="1038.242" y="231.504" fill="#FFF" font-size="13" textLength="201.652">Django Admin и Profile Service</text><text x="1017" y="246.637" fill="#FFF" font-size="13" textLength="244.137">используют общую базу профилей.</text></g><g class="entity" data-qualified-name="GMN44" id="ent0045" data-source-line="89"><path d="M212.09,659.867 L212.09,715.265 A0,0 0 0 0 212.09,715.265 L344.383,715.265 A0,0 0 0 0 344.383,715.265 L344.383,669.867 L334.383,659.867 L282.89,659.867 L278.89,590.207 L274.89,659.867 L212.09,659.867 A0,0 0 0 0 212.09,659.867" style="stroke:#E7E7E7;stroke-width:0.5;" fill="#714137"/><path d="M334.383,659.867 L334.383,669.867 L344.383,669.867 L334.383,659.867" style="stroke:#E7E7E7;stroke-width:0.5;" fill="#714137"/><text x="218.09" y="676.934" fill="#FFF" font-size="13" textLength="111.293">Маршрутизация</text><text x="232.274" y="692.067" fill="#FFF" font-size="13" textLength="82.926">Rate limiting</text><text x="231.855" y="707.199" fill="#FFF" font-size="13" textLength="83.764">X-Request-Id</text></g><!--link User to Nginx--><g class="link" data-entity-1="ent0001" data-entity-2="ent0003" id="lnk18" data-source-line="41" data-link-type="dependency"><path d="M81.89,537.127 C81.89,552.007 81.89,565.517 81.89,565.517 C81.89,565.517 152.16,565.517 209.49,565.517" style="stroke:#E7E7E7;stroke-width:1;" fill="none" id="User-to-Nginx"/><polygon points="214.49,565.517,205.49,561.517,209.49,565.517,205.49,569.517,214.49,565.517" fill="#E7E7E7" style="stroke:#E7E7E7;stroke-width:1;stroke-linejoin:miter;stroke-miterlimit:10;"/><text x="134.99" y="578.584" fill="#FFF" font-size="13" textLength="69.018">HTTP+JWT</text></g><!--link Admin to Nginx--><g class="link" data-entity-1="ent0002" data-entity-2="ent0003" id="lnk19" data-source-line="42" data-link-type="dependency"><path d="M46.89,606.007 C46.89,591.127 46.89,577.617 46.89,577.617 C46.89,577.617 140.93,577.617 209.41,577.617" style="stroke:#E7E7E7;stroke-width:1;" fill="none" id="Admin-to-Nginx"/><polygon points="214.41,577.617,205.41,573.617,209.41,577.617,205.41,581.617,214.41,577.617" fill="#E7E7E7" style="stroke:#E7E7E7;stroke-width:1;stroke-linejoin:miter;stroke-miterlimit:10;"/><text x="82.45" y="590.684" fill="#FFF" font-size="13" textLength="33.497">HTTP</text></g><!--link Nginx to Auth--><g class="link" data-entity-1="ent0003" data-entity-2="ent0005" id="lnk20" data-source-line="44" data-link-type="dependency"><path d="M310.89,553.187 C310.89,522.967 310.89,466.067 310.89,466.067 C310.89,466.067 408.69,466.067 474.95,466.067" style="stroke:#E7E7E7;stroke-width:1;" fill="none" id="Nginx-to-Auth"/><polygon points="479.95,466.067,470.95,462.067,474.95,466.067,470.95,470.067,479.95,466.067" fill="#E7E7E7" style="stroke:#E7E7E7;stroke-width:1;stroke-linejoin:miter;stroke-miterlimit:10;"/></g><!--link Nginx to Profile--><g class="link" data-entity-1="ent0003" data-entity-2="ent0006" id="lnk21" data-source-line="45" data-link-type="dependency"><path d="M246.89,553.077 C246.89,495.867 246.89,325.567 246.89,325.567 C246.89,325.567 609.53,325.567 757.44,325.567" style="stroke:#E7E7E7;stroke-width:1;" fill="none" id="Nginx-to-Profile"/><polygon points="762.44,325.567,753.44,321.567,757.44,325.567,753.44,329.567,762.44,325.567" fill="#E7E7E7" style="stroke:#E7E7E7;stroke-width:1;stroke-linejoin:miter;stroke-miterlimit:10;"/></g><!--link Nginx to Movies--><g class="link" data-entity-1="ent0003" data-entity-2="ent0011" id="lnk22" data-source-line="46" data-link-type="dependency"><path d="M341.9,580.637 C359.99,580.637 374.89,580.637 374.89,580.637 C374.89,580.637 374.89,958.567 374.89,958.567 C374.89,958.567 422.23,958.567 467,958.567" style="stroke:#E7E7E7;stroke-width:1;" fill="none" id="Nginx-to-Movies"/><polygon points="472,958.567,463,954.567,467,958.567,463,962.567,472,958.567" fill="#E7E7E7" style="stroke:#E7E7E7;stroke-width:1;stroke-linejoin:miter;stroke-miterlimit:10;"/></g><!--link Nginx to UGC--><g class="link" data-entity-1="ent0003" data-entity-2="ent0016" id="lnk23" data-source-line="47" data-link-type="dependency"><path d="M341.97,571.567 C379.5,571.567 422,571.567 460.45,571.567" style="stroke:#E7E7E7;stroke-width:1;" fill="none" id="Nginx-to-UGC"/><polygon points="465.45,571.567,456.45,567.567,460.45,571.567,456.45,575.567,465.45,571.567" fill="#E7E7E7" style="stroke:#E7E7E7;stroke-width:1;stroke-linejoin:miter;stroke-miterlimit:10;"/></g><!--link Nginx to DjangoAdmin--><g class="link" data-entity-1="ent0003" data-entity-2="ent0007" id="lnk24" data-source-line="48" data-link-type="dependency"><path d="M278.89,553.117 C278.89,510.337 278.89,407.987 278.89,407.987 C278.89,407.987 883.07,407.987 1078.79,407.987" style="stroke:#E7E7E7;stroke-width:1;" fill="none" id="Nginx-to-DjangoAdmin"/><polygon points="1083.79,407.987,1074.79,403.987,1078.79,407.987,1074.79,411.987,1083.79,407.987" fill="#E7E7E7" style="stroke:#E7E7E7;stroke-width:1;stroke-linejoin:miter;stroke-miterlimit:10;"/></g><!--link Auth to AuthDB--><g class="link" data-entity-1="ent0005" data-entity-2="ent0008" id="lnk25" data-source-line="50" data-link-type="dependency"><path d="M589.61,459.617 C642.22,459.617 715.97,459.617 767.17,459.617" style="stroke:#E7E7E7;stroke-width:1;" fill="none" id="Auth-to-AuthDB"/><polygon points="772.17,459.617,763.17,455.617,767.17,459.617,763.17,463.617,772.17,459.617" fill="#E7E7E7" style="stroke:#E7E7E7;stroke-width:1;stroke-linejoin:miter;stroke-miterlimit:10;"/><text x="565.74" y="472.684" fill="#FFF" font-size="13" textLength="99.379">пользователи,</text><text x="550.89" y="487.817" fill="#FFF" font-size="13" textLength="129.08">роли, авторизация</text></g><!--link Profile to ProfileDB--><g class="link" data-entity-1="ent0006" data-entity-2="ent0009" id="lnk26" data-source-line="52" data-link-type="dependency"><path d="M880.89,344.087 C880.89,356.687 880.89,371.097 880.89,371.097 C880.89,371.097 1226.94,371.097 1360.64,371.097" style="stroke:#E7E7E7;stroke-width:1;" fill="none" id="Profile-to-ProfileDB"/><polygon points="1365.64,371.097,1356.64,367.097,1360.64,371.097,1356.64,375.097,1365.64,371.097" fill="#E7E7E7" style="stroke:#E7E7E7;stroke-width:1;stroke-linejoin:miter;stroke-miterlimit:10;"/><text x="994.76" y="352.164" fill="#FFF" font-size="13" textLength="114.924">CRUD профилей,</text><text x="1002.793" y="367.297" fill="#FFF" font-size="13" textLength="98.858">ФИО, телефон</text></g><!--link DjangoAdmin to ProfileDB--><g class="link" data-entity-1="ent0007" data-entity-2="ent0009" id="lnk27" data-source-line="54" data-link-type="dependency"><path d="M1203.47,401.887 C1252.11,401.887 1314.95,401.887 1360.91,401.887" style="stroke:#E7E7E7;stroke-width:1;" fill="none" id="DjangoAdmin-to-ProfileDB"/><polygon points="1365.91,401.887,1356.91,397.887,1360.91,401.887,1356.91,405.887,1365.91,401.887" fill="#E7E7E7" style="stroke:#E7E7E7;stroke-width:1;stroke-linejoin:miter;stroke-miterlimit:10;"/><text x="1285.69" y="414.954" fill="#FFF" font-size="13" textLength="138.595">просмотр профилей</text><text x="1293.177" y="430.087" fill="#FFF" font-size="13" textLength="123.621">через Django ORM</text></g><!--link Movies to Elasticsearch--><g class="link" data-entity-1="ent0011" data-entity-2="ent0014" id="lnk28" data-source-line="56" data-link-type="dependency"><path d="M593.89,940.227 C593.89,929.927 593.89,919.117 593.89,919.117 C593.89,919.117 941.8,919.117 1082.07,919.117" style="stroke:#E7E7E7;stroke-width:1;" fill="none" id="Movies-to-Elasticsearch"/><polygon points="1087.07,919.117,1078.07,915.117,1082.07,919.117,1078.07,923.117,1087.07,919.117" fill="#E7E7E7" style="stroke:#E7E7E7;stroke-width:1;stroke-linejoin:miter;stroke-miterlimit:10;"/><text x="724.92" y="932.184" fill="#FFF" font-size="13" textLength="104.813">чтение и поиск</text></g><!--link MoviesDB to ETL--><g class="link" data-entity-1="ent0013" data-entity-2="ent0012" id="lnk29" data-source-line="58" data-link-type="dependency"><path d="M585.25,860.887 C637.74,860.887 714.39,860.887 767.03,860.887" style="stroke:#E7E7E7;stroke-width:1;" fill="none" id="MoviesDB-to-ETL"/><polygon points="772.03,860.887,763.03,856.887,767.03,860.887,763.03,864.887,772.03,860.887" fill="#E7E7E7" style="stroke:#E7E7E7;stroke-width:1;stroke-linejoin:miter;stroke-miterlimit:10;"/><text x="554.64" y="873.954" fill="#FFF" font-size="13" textLength="123.341">исходные данные</text></g><!--link ETL to Elasticsearch--><g class="link" data-entity-1="ent0012" data-entity-2="ent0014" id="lnk30" data-source-line="59" data-link-type="dependency"><path d="M823.89,888.007 C823.89,896.197 823.89,904.017 823.89,904.017 C823.89,904.017 990.38,904.017 1082.15,904.017" style="stroke:#E7E7E7;stroke-width:1;" fill="none" id="ETL-to-Elasticsearch"/><polygon points="1087.15,904.017,1078.15,900.017,1082.15,904.017,1078.15,908.017,1087.15,904.017" fill="#E7E7E7" style="stroke:#E7E7E7;stroke-width:1;stroke-linejoin:miter;stroke-miterlimit:10;"/><text x="842.51" y="917.084" fill="#FFF" font-size="13" textLength="104.939">синхронизация</text></g><!--link UGC to MongoDB--><g class="link" data-entity-1="ent0016" data-entity-2="ent0017" id="lnk31" data-source-line="61" data-link-type="dependency"><path d="M603.76,571.567 C658.23,571.567 727.56,571.567 774.15,571.567" style="stroke:#E7E7E7;stroke-width:1;" fill="none" id="UGC-to-MongoDB"/><polygon points="779.15,571.567,770.15,567.567,774.15,571.567,770.15,575.567,779.15,571.567" fill="#E7E7E7" style="stroke:#E7E7E7;stroke-width:1;stroke-linejoin:miter;stroke-miterlimit:10;"/><text x="594.882" y="552.634" fill="#FFF" font-size="13" textLength="68.428">закладки,</text><text x="567.46" y="567.767" fill="#FFF" font-size="13" textLength="123.271">оценки, рецензии</text></g><!--link UGC to GMN38--><g class="link" data-entity-1="ent0016" data-entity-2="ent0039" id="lnk40" data-source-line="77" data-link-type="association"><path d="M465.61,562.497 C434.61,562.497 404.89,562.497 404.89,562.497 C404.89,562.497 404.89,78.567 404.89,78.567 C404.89,78.567 417.1,78.567 434.02,78.567" style="stroke:#E7E7E7;stroke-width:1;stroke-dasharray:7,7;" fill="none" id="UGC-GMN38"/></g><!--link Auth to Profile--><!--link Profile to DjangoAdmin--><!--link Movies to ETL--><?plantuml-src XLPHRnj547xVNp7o2m_K5I1L21wGahWAHGsOn16LA49Ntze-Oj-QkqtRg49AKjA2YaWV4GBw0k-fiMlNiPs_iFUF-6RtRA_j92JnvMPsTkQRsMzchIFTb6HUPeVPYHbanwPdXjbnzZGxD6UK7PaUNZfOE89eBY1CiX_Dm9p3xYsPYHdZzSoyDUEY6K8_nZhxE8CFU12YAMkQjA8agZSqXL4YgpfIiH3fNXItWoHeKLMrsYgMiTxH1y325a5SRqhF96q4eNeKnNMg1StKNsb6iTG7RKagqGtbBOIo5kmtTKK-rclDg1wt482gUCZ4iufLA5FPfW_VyvH94E-nyYDVsGwgUq5TbeCmP1mVtBeiW-dg-xU42AfQ9LGmhr2by-mNqyV_3XS6vO5Se22btHHefeOlJTUCR0rHRbS_64-oGskw5hOYb6rM7IfyNe_YnxGPQFaeEB0sLYD43lMgs6P0_ESVvg10JmJXPvO95TRsTODsPF8mgag708fbetAYQX70-7QvRjcqz1rmAvU7jNEAF2ys3WCTF0XI02-hLDSJkVFbtVinXvt5BwrVOva7JdqKsF23Nv7VcREs3dXUalMMUXZ9T24Vfresl5svks05-Reid1FFtqecjvj1ggDgAeEawX9Uq2ocSGMfqARSXUZCuV_akRkvGHiAtG1XhNp7iN5pOmdJbi89bTPpsFQTSJ1jgLZyn16EFgPFAvNokvzzLH7sD5UMX70IwosBvkAKB7DDNkwvWc7DfGNMM8vElPRM4SvSN4xv6_TZvhjz9KoiZcij5AiFesTekLCXfcpsW5cd6zkxfPNf1u_cR_ER-Ui6vK5wM4JLXV0mhlZAtHoXrIVSv2j-0VIv7Rizqy-pfI-sjuJ8gSaE5vW1fzbpTzJmqNFD3I0yj8VJROXjDuArmC03vWGcNR3Z1M_feYHZ9mYskJJ84G-dxCJMSRnOEQQJEpnB4ew1LR2GRuSkavBBDO4vesIHECDSxiFPG8XOQKaFbDQgHQhcc09IkMowU3Bi5togs7cCzrDXCOtmsxC3Su3ISH8ZUtNX9kCOE6Wp4Z8EYGEiX9aoqBooYNMuzjafxoCR_1pA8K8ogN2z2Ji-0RbZZslemD0-MkBRABmfXFcJ2ze1YluSBFdJLDWZ7v3T_0QP0P-hrvGRlPjNu-LsCF_mxM1lYbbeFlSMdxKFus8b9qSqv38I7iyMnzurqVtsyoSwHr-w38HbuAmVyPtYLyI7-3hxcGKohv43z2ijS4ryTyMPFq2zm-mdV9xYV7qgRkC-nBU2LgHn4OjxnMtv_RvCTV5Ew3bzX-m4xTfv2GpCI6w2y-oKKKqiZ1xbnSEfct_DXEoDd6U4pnlNSOZfnj3NZIWCPVoDDzLc0yLRMnXWqvxsrj5-_m40?></g></svg>